# xmcd
#
# Track frame offsets:
#	150
#	18847
#	35997
#	49965
#	62536
#	77775
#	91103
#	105767
#	117699
#	133020
#	168455
#
# Disc length: 2444 seconds
#
# Revision: 0
# Processed by: cddbd v1.4PL0 Copyright (c) Steve Scherf et al.
# Submitted via: EasyCDDAExtractor 4.6.0.1
#
DISCID=8c098a0b
DTITLE=Various Artist - The Blues Brothers - Original Soundtrack
DYEAR=1900
DGENRE=Blues
TTITLE0=Jake - She Caught The Katy
TTITLE1=Peter Gunn Theme
TTITLE2=Jake - Gimme Some Lovin'
TTITLE3=Ray Charles, Jake and Elwood - Shake A Tail Feather
TTITLE4=Jake and Elwood - Everybody Needs Somebody To Love
TTITLE5=James Brown With Rev. James Cleveland Choir - The Old Landmark
TTITLE6=Aretha Franklin - Think
TTITLE7=Elwood and Jake - Theme From Rawhide
TTITLE8=Cab Calloway - Minnie The Moocher
TTITLE9=Elwood and Jake - Sweet Home Chicago
TTITLE10=Jake - Jailhouse Rock
EXTD=
EXTT0=
EXTT1=
EXTT2=
EXTT3=
EXTT4=
EXTT5=
EXTT6=
EXTT7=
EXTT8=
EXTT9=
EXTT10=
PLAYORDER=
